<?xml version="1.0" encoding="UTF-8" standalone="no"?>
<svg
   xmlns:dc="http://purl.org/dc/elements/1.1/"
   xmlns:cc="http://creativecommons.org/ns#"
   xmlns:rdf="http://www.w3.org/1999/02/22-rdf-syntax-ns#"
   xmlns:svg="http://www.w3.org/2000/svg"
   xmlns="http://www.w3.org/2000/svg"
   viewBox="0 0 377.95334 377.95334"
   height="377.95334"
   width="377.95334"
   xml:space="preserve"
   id="svg2"
   version="1.1"><metadata
     id="metadata8"><rdf:RDF><cc:Work
         rdf:about=""><dc:format>image/svg+xml</dc:format><dc:type
           rdf:resource="http://purl.org/dc/dcmitype/StillImage" /></cc:Work></rdf:RDF></metadata><defs
     id="defs6"><clipPath
       id="clipPath18"
       clipPathUnits="userSpaceOnUse"><path
         id="path16"
         d="M 0,283.465 H 283.465 V 0 H 0 Z" /></clipPath><clipPath
       id="clipPath74"
       clipPathUnits="userSpaceOnUse"><path
         id="path72"
         d="M 0,283.465 H 283.465 V 0 H 0 Z" /></clipPath></defs><g
     transform="matrix(1.3333333,0,0,-1.3333333,0,377.95333)"
     id="g10"><g
       id="g12"><g
         clip-path="url(#clipPath18)"
         id="g14"><g
           transform="translate(214.4854,153.3376)"
           id="g20"><path
             id="path22"
             style="fill:#8ea791;fill-opacity:1;fill-rule:nonzero;stroke:none"
             d="m 0,0 c -0.509,-0.14 -0.948,-0.364 -1.349,-0.636 -0.006,0.111 -0.026,0.221 -0.034,0.332 0.261,0.423 0.499,0.855 0.678,1.309 C -0.433,0.67 -0.151,0.343 0.127,0.012 0.085,0.01 0.044,0.012 0,0 m -4.797,-3.072 c 0.333,0.525 0.665,1.051 1.023,1.556 0.405,0.372 0.803,0.749 1.183,1.144 0.007,-0.097 0.01,-0.191 0.016,-0.289 -0.677,-0.834 -1.442,-1.634 -2.222,-2.411 m -0.175,8.108 c 0.161,0.286 0.303,0.581 0.427,0.883 0.124,-0.161 0.248,-0.322 0.372,-0.482 -0.145,-0.216 -0.303,-0.424 -0.469,-0.625 -0.08,0.076 -0.17,0.145 -0.28,0.203 -0.015,0.008 -0.032,0.012 -0.05,0.021 m 2.187,-3.4 C -2.783,1.617 -2.782,1.599 -2.779,1.579 -3.111,1.265 -3.433,0.94 -3.731,0.6 c -0.048,0.111 -0.126,0.206 -0.22,0.283 0.35,0.254 0.764,0.537 1.166,0.753 M -5.829,3.142 C -5.981,2.889 -6.13,2.633 -6.28,2.378 -6.457,2.217 -6.637,2.057 -6.8,1.901 -6.958,1.75 -7.109,1.593 -7.267,1.44 c 0.16,0.267 0.317,0.536 0.479,0.8 0.269,0.437 0.563,0.862 0.855,1.288 0.107,0.085 0.211,0.185 0.319,0.262 C -5.668,3.752 -5.745,3.483 -5.829,3.142 m -3.822,8.678 c -0.031,-0.008 -0.056,-0.01 -0.087,-0.022 -0.438,-0.144 -0.849,-0.395 -1.237,-0.701 0.016,0.031 0.03,0.062 0.046,0.091 0.409,0.489 0.825,0.975 1.22,1.475 0.082,-0.111 0.167,-0.22 0.249,-0.33 -0.079,-0.155 -0.144,-0.327 -0.191,-0.513 m -2.031,-4.966 c -0.566,-1.035 -1.174,-2.037 -1.791,-3.034 -0.481,-0.681 -0.93,-1.371 -1.328,-2.007 -0.032,0.131 -0.104,0.254 -0.199,0.351 0.167,0.376 0.321,0.758 0.446,1.162 0.08,0.262 -0.08,0.558 -0.316,0.701 0.467,0.739 0.883,1.507 1.281,2.287 0.973,1.19 2.049,2.305 3.007,3.279 0.169,0.169 0.344,0.332 0.521,0.491 0.011,0.008 0.015,0.012 0.023,0.02 -0.347,-1.129 -1.103,-2.263 -1.644,-3.25 m -5.689,8.703 c -0.553,-0.629 -1.111,-1.253 -1.682,-1.87 -1.117,-1.21 -2.061,-2.84 -3.487,-3.732 0.468,0.601 0.896,1.225 1.23,1.895 0.023,0.043 0.036,0.088 0.047,0.134 0.117,0.142 0.23,0.279 0.335,0.411 1.492,1.338 3.075,3.114 4.021,4.76 0.132,0.229 0.099,0.449 -0.017,0.618 0.208,0.255 0.428,0.503 0.633,0.76 0.092,-0.007 0.182,-0.031 0.274,-0.034 0.148,-0.006 0.316,-0.004 0.495,0.004 -0.711,-0.785 -1.343,-1.935 -1.849,-2.946 m -0.778,-7.34 c 0.431,0.564 0.87,1.122 1.314,1.677 0.14,0.14 0.278,0.281 0.419,0.422 -0.092,-0.179 -0.181,-0.356 -0.27,-0.533 -0.172,-0.286 -0.337,-0.578 -0.501,-0.871 -0.313,-0.246 -0.634,-0.475 -0.962,-0.695 m 0.992,-5.134 c -0.006,-0.016 -0.004,-0.034 -0.01,-0.051 -0.871,-0.596 -1.652,-1.301 -2.396,-2.051 0.395,0.517 0.793,1.026 1.193,1.531 0.693,0.645 1.371,1.3 1.959,2.009 -0.293,-0.471 -0.55,-0.951 -0.746,-1.438 m -7.54,12.737 c -0.13,0.094 -0.294,0.128 -0.469,0.089 0.08,0.351 0.112,0.713 0.073,1.091 -0.005,0.056 -0.03,0.098 -0.046,0.147 1.536,0.09 3.087,0.855 4.355,1.89 0.332,0.271 0.648,0.562 0.956,0.86 0.008,-0.003 0.014,-0.007 0.021,-0.012 -0.257,-0.262 -0.515,-0.521 -0.773,-0.782 -0.18,-0.158 -0.356,-0.334 -0.527,-0.533 -0.166,-0.167 -0.331,-0.335 -0.498,-0.502 -0.003,-0.003 -0.007,-0.005 -0.011,-0.007 -0.247,-0.209 -0.46,-0.448 -0.686,-0.677 -0.857,-0.228 -1.665,-0.839 -2.395,-1.564 m 5.998,3.418 c 0.557,-0.28 1.142,-0.499 1.751,-0.62 -0.204,-0.179 -0.4,-0.373 -0.601,-0.556 -0.089,-0.008 -0.176,-0.027 -0.259,-0.074 -1.277,-0.708 -2.124,-1.915 -2.932,-3.127 -0.27,-0.294 -0.541,-0.582 -0.807,-0.881 0.315,0.678 0.606,1.422 0.716,2.052 0.842,0.833 1.65,1.687 2.096,2.815 0.047,0.12 0.055,0.257 0.036,0.391 m 1.659,3.633 c 0.808,0.83 -0.127,1.602 0.997,-0.29 0.406,-0.686 0.795,-1.383 1.186,-2.078 -0.393,-0.102 -0.798,-0.14 -1.232,-0.134 -0.896,0.012 -1.871,0.213 -2.762,0.539 0.607,0.654 1.196,1.329 1.811,1.963 m 4.253,-9.213 c 0.075,0.084 0.151,0.168 0.228,0.249 -0.247,-0.702 -0.628,-1.383 -1.027,-2.033 -0.16,-0.242 -0.305,-0.494 -0.46,-0.738 -0.047,-0.011 -0.094,-0.02 -0.137,-0.043 -0.048,-0.025 -0.091,-0.06 -0.14,-0.086 0.56,0.868 1.1,1.75 1.536,2.651 m 1.117,-1.038 c -0.441,-1.153 -1.126,-2.208 -1.794,-3.26 -0.126,-0.14 -0.252,-0.28 -0.377,-0.42 l 0.347,0.587 c 0.02,0.033 0.041,0.067 0.061,0.1 0.05,0.078 0.109,0.18 0.17,0.29 0.183,0.306 0.364,0.614 0.546,0.92 0.313,0.522 0.637,1.059 0.919,1.615 0.043,0.059 0.086,0.114 0.128,0.168 m -15.446,-2.321 c -0.77,-0.932 -1.471,-1.935 -1.715,-3.117 -0.847,-0.776 -1.632,-1.597 -2.362,-2.464 -0.132,-0.141 -0.266,-0.284 -0.396,-0.427 0.228,0.307 0.449,0.621 0.668,0.938 0.364,0.395 0.732,0.789 1.073,1.203 0.151,0.182 0.173,0.397 0.124,0.593 0.847,1.305 1.677,2.618 2.584,3.83 0.228,0.305 0.483,0.591 0.723,0.887 -0.248,-0.48 -0.479,-0.964 -0.699,-1.443 m -4.868,-3.15 C -32.888,6.115 -33.772,5.065 -34.64,4 c -0.565,-0.559 -1.123,-1.125 -1.678,-1.695 1.301,1.483 2.591,2.973 3.672,4.634 0.367,0.565 -0.407,1.213 -0.932,0.863 -0.462,-0.308 -0.895,-0.647 -1.323,-0.991 0.109,0.362 0.206,0.727 0.28,1.095 0.56,0.574 1.122,1.144 1.688,1.707 -0.22,-0.629 0.54,-1.289 1.074,-0.702 0.452,0.498 0.869,1.013 1.272,1.533 0.506,0.576 1.012,1.152 1.457,1.764 -0.565,-0.831 -1.091,-1.7 -1.603,-2.508 -0.401,-0.576 -0.799,-1.152 -1.186,-1.738 -0.155,-0.236 -0.109,-0.485 0.031,-0.677 -0.032,-0.045 -0.063,-0.092 -0.096,-0.136 m -5.319,-2.495 c -0.755,-0.744 -1.496,-1.505 -2.246,-2.26 0.344,0.618 0.763,1.202 1.24,1.752 10e-4,0 10e-4,0.001 10e-4,0.002 0.54,0.622 1.137,1.208 1.723,1.78 -0.225,-0.431 -0.467,-0.855 -0.718,-1.274 m -3.801,5.157 c -0.284,-0.282 -0.561,-0.568 -0.84,-0.854 1.705,2.284 3.339,4.642 5.122,6.857 0.382,0.409 0.77,0.806 1.16,1.204 -0.788,-1.236 -1.563,-2.48 -2.356,-3.709 -0.112,-0.173 -0.107,-0.351 -0.039,-0.511 -0.198,-0.197 -0.395,-0.394 -0.599,-0.593 -0.933,-0.696 -1.779,-1.485 -2.448,-2.394 m 1.049,9.118 c -0.138,-0.174 -0.274,-0.351 -0.409,-0.53 -0.269,-0.264 -0.545,-0.54 -0.818,-0.824 -0.531,-0.467 -1.062,-0.934 -1.586,-1.409 0.916,0.945 1.848,1.867 2.813,2.763 m -4.813,-1.145 c 0.647,0.664 1.31,1.311 2.006,1.935 -0.62,-0.675 -1.243,-1.345 -1.857,-2.026 -0.047,0.035 -0.093,0.076 -0.149,0.091 m -1.569,1.962 c -0.338,-0.335 -0.668,-0.68 -0.994,-1.027 -0.1,-0.089 -0.205,-0.174 -0.306,-0.261 0.088,0.175 0.163,0.351 0.233,0.527 0.079,0.096 0.158,0.193 0.236,0.288 0.064,0.061 0.126,0.107 0.189,0.182 0.084,0.101 0.146,0.205 0.213,0.308 1.766,2.156 3.553,4.295 5.403,6.374 0.094,-0.248 0.146,-0.523 0.184,-0.809 -0.336,-0.33 -0.67,-0.661 -0.991,-1.005 -1.151,-1.17 -2.293,-2.354 -3.369,-3.573 -0.248,-0.281 -0.514,-0.631 -0.798,-1.004 m 0.823,5.18 c 0.432,1.064 1.056,2.01 1.704,3.061 0.178,-0.055 0.353,-0.103 0.527,-0.151 -0.018,-0.018 -0.041,-0.025 -0.057,-0.047 -0.764,-0.931 -1.485,-1.886 -2.174,-2.863 m 1.202,-0.599 c 0.72,0.867 1.43,1.742 2.035,2.705 0.066,0.106 0.083,0.211 0.082,0.313 0.214,-0.164 0.413,-0.392 0.592,-0.703 -1.576,-1.689 -3.095,-3.434 -4.582,-5.211 0.003,0.012 0.006,0.025 0.007,0.038 0.598,0.976 1.215,1.929 1.866,2.858 m -8.444,11.763 c -1.008,0.495 -1.935,0.433 -2.808,0.095 4.141,3.794 9.661,8.023 12.875,5.53 2.015,-1.563 3.493,-3.506 4.717,-5.63 -0.372,-2.36 0.129,-4.754 0.125,-7.149 -0.003,-1.69 -3.847,2.358 -3.879,2.395 -0.37,0.421 -0.916,1.086 -1.517,1.226 -2.814,0.658 -5.176,-5.199 -6.471,-8.419 -1.342,3.585 0.693,10.118 -3.042,11.952 m 1.351,-15.79 c -0.012,-0.007 -0.025,-0.013 -0.038,-0.02 0.047,0.298 0.047,0.601 0.01,0.909 0.077,0.054 0.143,0.123 0.195,0.204 0.131,-0.129 0.267,-0.278 0.406,-0.434 -0.194,-0.217 -0.381,-0.44 -0.573,-0.659 m -2.101,-4.53 c -0.433,-0.535 -0.856,-1.068 -1.245,-1.619 -0.056,0.005 -0.111,0.002 -0.167,-0.005 1.331,1.337 2.111,3.383 3.559,4.584 -0.446,-1.085 -1.612,-2.298 -2.147,-2.96 m 0.748,4.96 c -0.015,-0.801 -0.435,-1.629 -0.99,-2.446 -0.163,0.236 -0.476,0.366 -0.764,0.294 0.493,0.838 1.045,1.683 1.754,2.152 m -2.978,12.901 c -0.685,-0.358 -1.355,-0.821 -2.011,-1.345 -0.076,-0.026 -0.149,-0.057 -0.223,-0.086 1.319,1.046 2.853,2.053 3.982,1.638 -0.015,-0.019 -0.027,-0.037 -0.041,-0.056 -0.092,-0.009 -0.184,-0.034 -0.27,-0.094 -0.169,-0.119 -0.332,-0.244 -0.499,-0.366 -0.135,0.341 -0.573,0.501 -0.938,0.309 m 0.744,-22.712 c -1.18,-1.363 -2.367,-2.723 -3.552,-4.082 -0.261,-0.13 -0.522,-0.292 -0.766,-0.465 0.053,0.073 0.111,0.15 0.161,0.22 0.903,1.27 1.731,2.537 2.636,3.756 0.222,0.231 0.433,0.486 0.649,0.732 0.212,-0.243 0.579,-0.357 0.866,-0.14 0.012,0.01 0.025,0.021 0.037,0.031 -0.011,-0.017 -0.02,-0.036 -0.031,-0.052 m -8.235,0.843 c -0.194,-0.061 -0.377,-0.13 -0.551,-0.204 1.178,1.376 2.409,2.715 3.502,4.154 0.622,0.363 1.197,0.804 1.74,1.298 -0.199,-0.341 -0.407,-0.682 -0.622,-1.021 -0.846,-0.801 -1.684,-1.608 -2.495,-2.445 -0.454,-0.467 -0.99,-1.111 -1.574,-1.782 m -2.626,-1.188 c -0.521,-0.254 -1.019,-0.55 -1.395,-0.945 l -0.011,0.01 c 0.051,0.065 0.103,0.131 0.153,0.195 1.07,0.812 2.02,1.771 2.936,2.776 -0.577,-0.667 -1.138,-1.345 -1.683,-2.036 m -2.339,-0.205 c -0.033,-0.017 -0.068,-0.024 -0.102,-0.05 -0.047,-0.036 -0.087,-0.076 -0.134,-0.112 v 10e-4 l -0.005,-0.006 c -0.01,-0.008 -0.018,-0.015 -0.026,-0.023 -0.106,10e-4 -0.212,0.005 -0.317,-0.018 -0.068,0.083 -0.142,0.161 -0.213,0.241 0.152,0.212 0.312,0.415 0.463,0.629 0.246,0.274 0.484,0.553 0.729,0.827 0.053,0.03 0.105,0.057 0.161,0.088 0.134,0.074 0.187,0.192 0.191,0.312 0.831,0.948 1.649,1.904 2.433,2.884 0.027,-0.002 0.052,-0.011 0.078,-0.009 0.192,0.02 0.381,0.066 0.564,0.119 -0.021,-0.038 -0.043,-0.075 -0.064,-0.113 -0.149,-0.193 -0.296,-0.385 -0.444,-0.576 -1.081,-1.415 -2.25,-2.769 -3.314,-4.194 m -3.347,-7.982 c -0.098,-0.12 -0.207,-0.235 -0.306,-0.354 -0.286,-0.077 -0.583,-0.053 -0.882,0.176 -0.159,0.121 -0.295,0.271 -0.416,0.438 1.18,1.485 2.41,2.931 3.673,4.352 0.28,-0.211 0.529,-0.485 0.746,-0.785 -1.061,-1.187 -1.969,-2.482 -2.815,-3.827 m -2.928,5.514 c 0.854,1.131 1.717,2.256 2.602,3.363 0.02,-0.021 0.03,-0.045 0.054,-0.065 0.036,-0.031 0.077,-0.065 0.114,-0.095 -0.927,-1.066 -1.849,-2.134 -2.77,-3.203 m -0.617,-5.494 c -0.229,-0.294 -0.462,-0.583 -0.69,-0.879 -0.087,-0.112 -0.172,-0.229 -0.256,-0.345 -0.057,-0.071 -0.109,-0.143 -0.167,-0.214 -1.164,-1.431 -2.909,-3.268 -3.762,-5.223 -0.192,-0.205 -0.391,-0.397 -0.596,-0.583 1.651,2.882 3.832,5.465 5.957,8.079 0.013,-0.041 0.024,-0.083 0.039,-0.122 -0.175,-0.238 -0.347,-0.476 -0.525,-0.713 m -7.209,4.587 c -0.026,0.048 -0.052,0.095 -0.077,0.144 0.612,0.954 1.384,1.845 2.033,2.713 C -81.06,8.873 -81.7,7.904 -82.393,6.994 m -0.996,2.172 C -83.4,9.15 -83.414,9.13 -83.426,9.114 c -0.052,0.08 -0.107,0.161 -0.165,0.24 1.301,2.071 3.068,4.008 4.183,6.046 0.469,0.113 0.932,0.278 1.386,0.483 -1.082,-1.249 -2.158,-2.502 -3.177,-3.802 -0.75,-0.956 -1.462,-1.942 -2.19,-2.915 m -1.77,1.484 c -0.041,0.016 -0.083,0.035 -0.123,0.048 0.457,0.936 1.067,1.861 1.717,2.751 0.412,0.532 0.804,1.064 1.183,1.579 0.096,0.125 0.18,0.241 0.273,0.364 0.006,-0.002 0.014,-0.006 0.023,-0.009 0.107,-0.027 0.215,-0.04 0.322,-0.059 -0.243,-0.33 -0.477,-0.664 -0.717,-0.996 -0.44,-0.49 -0.864,-0.99 -1.237,-1.518 -0.367,-0.522 -0.859,-1.443 -1.441,-2.16 m -2.583,-13.898 c 0.629,1.234 1.405,2.38 2.257,3.48 0.051,-0.117 0.103,-0.234 0.156,-0.35 -0.773,-1.073 -1.542,-2.145 -2.413,-3.13 m -1.976,20.836 c 0.035,0.336 0.07,0.674 0.102,1.016 0.257,0.356 0.518,0.708 0.778,1.062 0.145,0.181 0.287,0.364 0.435,0.542 0.128,0.159 0.281,0.37 0.44,0.586 0.109,-0.195 0.228,-0.385 0.343,-0.577 0.002,-0.057 0.005,-0.113 0.003,-0.174 -0.548,-0.539 -1.318,-1.598 -2.101,-2.455 M -90.7,5.194 c -0.069,-0.038 -0.136,-0.069 -0.203,-0.096 0.519,0.995 1.312,2.001 2.135,2.949 0.023,-0.048 0.048,-0.098 0.072,-0.147 -0.696,-0.882 -1.358,-1.788 -2.004,-2.706 m -1.422,1.643 c -0.182,-0.197 -0.357,-0.403 -0.537,-0.601 -0.108,0.172 -0.208,0.35 -0.304,0.535 0.955,1.272 1.902,2.55 2.866,3.817 0.153,-0.261 0.295,-0.526 0.441,-0.793 -0.907,-0.922 -1.712,-1.92 -2.466,-2.958 m -3.665,-4.108 c -0.004,0.097 0.003,0.196 0.012,0.296 0.656,0.889 1.327,1.767 1.989,2.651 0.08,-0.145 0.16,-0.29 0.246,-0.427 -0.753,-0.837 -1.512,-1.667 -2.247,-2.52 m -1.867,1.133 c 0.69,1.536 1.531,2.909 2.879,3.936 0.004,-0.009 0.007,-0.02 0.011,-0.029 -0.031,-0.045 -0.067,-0.087 -0.097,-0.132 -0.35,-0.5 -0.74,-1.058 -1.095,-1.65 -0.565,-0.71 -1.134,-1.416 -1.698,-2.125 m -3.862,8.073 c -0.031,-0.017 -0.061,-0.032 -0.088,-0.061 l -2.782,-3.107 c 1.664,2.14 3.401,4.22 5.276,6.188 0.278,0.3 0.194,0.657 -0.03,0.875 0.067,0.062 0.132,0.125 0.198,0.188 0.055,-0.348 0.479,-0.599 0.797,-0.263 0.916,0.969 1.82,1.923 2.625,2.972 0.204,0.08 0.402,0.17 0.588,0.28 -0.038,-0.059 -0.069,-0.123 -0.107,-0.181 -0.719,-0.79 -1.444,-1.591 -2.095,-2.433 -0.199,-0.108 -0.4,-0.224 -0.604,-0.369 -1.451,-1.039 -2.651,-2.587 -3.778,-4.089 m 1.874,-10.563 c -0.009,-0.009 -0.02,-0.015 -0.031,-0.024 0.265,0.599 0.577,1.179 0.92,1.748 0.111,-0.084 0.253,-0.123 0.396,-0.116 -0.428,-0.536 -0.851,-1.076 -1.285,-1.608 m -3.765,2.213 c -0.511,-0.621 -1.021,-1.245 -1.519,-1.878 -0.012,-0.017 -0.025,-0.034 -0.038,-0.05 0.184,0.321 0.369,0.64 0.552,0.96 0.631,0.797 1.282,1.583 1.933,2.368 -0.307,-0.468 -0.613,-0.935 -0.928,-1.4 m -3.775,1.225 c 0.005,0.071 -0.001,0.141 -0.023,0.205 0.835,1.157 1.691,2.295 2.562,3.422 -0.063,-0.134 0.015,-0.264 0.126,-0.319 -0.888,-1.103 -1.774,-2.206 -2.665,-3.308 m -2.361,1.509 c -0.371,-0.477 -0.745,-0.966 -1.119,-1.452 1.282,1.82 2.637,3.592 4.092,5.254 -0.992,-1.267 -1.982,-2.534 -2.973,-3.802 m -1.421,7.44 c -0.023,-0.011 -0.048,-0.008 -0.071,-0.023 -0.008,-0.004 -0.015,-0.01 -0.021,-0.015 -0.029,0.507 -0.09,1.005 -0.279,1.445 0.525,-0.52 1.3,0.327 0.779,0.857 -0.269,0.273 -0.525,0.557 -0.783,0.838 0.038,0.052 0.078,0.101 0.115,0.153 0.458,-0.565 0.97,-1.083 1.553,-1.541 -0.428,-0.575 -0.862,-1.143 -1.293,-1.714 m -0.703,3.454 c -0.411,0.428 -0.841,0.825 -1.341,1.111 0.113,0.411 0.188,0.827 0.195,1.225 0.376,-0.761 0.8,-1.487 1.296,-2.156 z m -3.785,-10.907 c -0.162,-0.259 -0.324,-0.52 -0.485,-0.782 0.117,0.266 0.233,0.527 0.349,0.785 0.748,1.045 1.475,2.106 2.283,3.107 0.198,0.244 0.396,0.509 0.6,0.777 -0.902,-1.389 -2.02,-2.728 -2.747,-3.887 m -1.184,0.638 c -0.002,-0.002 -0.003,-0.005 -0.004,-0.006 -0.346,-0.446 -0.658,-0.916 -0.956,-1.396 -0.078,0.017 -0.159,0.02 -0.242,0.01 0.487,0.642 0.921,1.337 1.101,2.101 0.481,0.888 0.956,1.925 1.473,2.971 0.434,0.578 0.917,1.186 1.441,1.617 -0.014,-0.059 -0.03,-0.116 -0.046,-0.175 -0.796,-1.571 -1.857,-3.117 -2.453,-4.417 -0.104,-0.226 -0.209,-0.466 -0.314,-0.705 m -2.797,0.404 c -0.436,-0.381 -0.867,-0.778 -1.286,-1.201 1.156,1.634 2.377,3.207 3.624,4.769 -0.095,-0.267 -0.177,-0.538 -0.267,-0.808 -0.268,-0.358 -0.539,-0.713 -0.8,-1.078 -0.397,-0.555 -0.829,-1.117 -1.271,-1.682 m 2.388,19.934 c 0.028,0.082 0.056,0.164 0.08,0.247 0.187,0.245 0.372,0.492 0.559,0.736 0.078,-0.124 0.158,-0.254 0.237,-0.394 -0.055,-0.078 -0.113,-0.153 -0.169,-0.23 -0.013,-0.002 -0.023,0.001 -0.035,-0.002 -0.263,-0.077 -0.478,-0.206 -0.672,-0.357 m 3.25,-5.3 c -0.097,0.018 -0.194,0.021 -0.28,-0.011 -0.573,-0.214 -1.057,-0.512 -1.48,-0.867 0.2,0.396 0.39,0.779 0.546,1.132 0.113,0.256 0.251,0.529 0.399,0.808 0.107,0.122 0.21,0.256 0.322,0.369 0.188,-0.531 0.354,-1.018 0.493,-1.431 m 8.024,-9.123 c -0.654,-0.673 -1.291,-1.368 -1.909,-2.082 0.47,0.645 0.928,1.298 1.389,1.949 0.089,-0.011 0.18,-0.009 0.267,0.019 0.087,0.029 0.169,0.077 0.253,0.114 m -0.197,3.562 c -0.845,-0.806 -1.645,-1.697 -2.409,-2.625 0.329,0.527 0.614,1.076 0.835,1.628 0.037,0.094 0.049,0.184 0.048,0.271 0.39,0.595 0.662,1.196 0.87,1.828 0.231,-0.164 0.574,-0.181 0.849,0.059 0.089,0.079 0.181,0.184 0.274,0.301 0.028,-0.278 0.085,-0.465 0.152,-0.604 -0.067,-0.092 -0.138,-0.181 -0.207,-0.274 -0.14,-0.193 -0.272,-0.39 -0.412,-0.584 m 3.28,5.716 c -0.399,-1.118 -0.947,-2.174 -1.523,-3.216 -0.041,0.305 -0.043,0.643 -0.012,1.036 0.478,0.833 0.991,1.665 1.535,2.18 m 0.437,-2.251 c 0.249,0.499 0.469,1.011 0.67,1.533 0.116,0.159 0.234,0.318 0.35,0.478 0.193,-0.252 0.39,-0.501 0.604,-0.74 -0.147,-0.357 -0.674,-0.569 -0.977,-0.792 -0.216,-0.159 -0.431,-0.32 -0.647,-0.479 m 0.281,-3.375 c 0.553,0.564 1.241,1.467 2.006,2.245 -0.011,-0.052 -0.013,-0.106 -0.017,-0.159 -0.565,-0.663 -1.113,-1.338 -1.642,-2.029 -0.032,-0.016 -0.063,-0.03 -0.094,-0.053 -0.307,-0.237 -0.605,-0.485 -0.904,-0.734 0.219,0.259 0.435,0.509 0.651,0.73 m -15.999,14.702 c -1.981,-1.213 -3.785,-2.909 -5.479,-4.692 0.408,0.56 0.809,1.124 1.219,1.683 3.932,5.359 7.515,11.088 11.908,16.079 2.986,3.393 5.117,1.972 7.598,-0.784 2.38,-2.642 4.528,-5.469 6.585,-8.363 0.155,-1.667 0.323,-3.333 0.365,-5.016 0.043,-1.744 -0.016,-3.503 -0.239,-5.233 -0.389,-3.02 -2.527,-0.072 -3.58,1.155 -0.814,0.947 -2.476,4.571 -4.369,2.736 -1.43,-1.385 -2.16,-2.901 -2.901,-4.756 -0.123,-0.313 -1.79,-7.184 -3.031,-5.568 -1.771,2.308 -2.664,5.285 -3.445,8.165 0,0.026 0.006,0.054 0.004,0.081 -0.008,0.112 -0.047,0.217 -0.106,0.305 -0.213,0.791 -0.422,1.575 -0.638,2.329 -0.465,1.613 -2.295,2.857 -3.891,1.879 m -0.99,-11.773 c -0.483,-0.653 -0.979,-1.297 -1.477,-1.941 -0.063,0.079 -0.134,0.147 -0.216,0.209 0.572,0.673 1.159,1.331 1.775,1.966 -0.027,-0.077 -0.053,-0.153 -0.082,-0.234 m -1.1,-4.002 c -0.246,-0.293 -0.489,-0.581 -0.732,-0.869 0.127,0.285 0.259,0.566 0.385,0.852 0.013,0.032 0.019,0.061 0.03,0.092 0.124,0.169 0.248,0.341 0.373,0.509 -0.026,-0.197 -0.052,-0.393 -0.056,-0.584 m -1.815,2.546 c -0.025,-0.003 -0.047,0 -0.072,-0.004 0.572,0.729 1.161,1.449 1.782,2.142 0.07,0.077 0.143,0.151 0.216,0.228 0.029,-0.025 0.06,-0.049 0.094,-0.07 -0.704,-0.74 -1.37,-1.511 -2.02,-2.296 m -2.24,0.136 c 1.266,1.807 2.598,3.561 3.958,5.292 -0.115,-0.442 -0.195,-0.864 -0.235,-1.255 -0.022,-0.033 -0.044,-0.067 -0.066,-0.1 -1.432,-1.493 -2.761,-3.071 -4.044,-4.693 0.137,0.248 0.266,0.501 0.387,0.756 m -1.123,0.281 c -0.011,-0.017 -0.025,-0.032 -0.035,-0.049 -0.763,-1.142 -1.515,-2.287 -2.253,-3.44 -0.029,0.205 -0.014,0.425 0.019,0.653 0.468,0.699 0.952,1.384 1.446,2.064 0.312,0.349 0.624,0.697 0.937,1.044 -0.038,-0.091 -0.073,-0.183 -0.114,-0.272 m 28.264,3.006 c 0.42,-0.086 0.847,-0.069 1.274,0.114 -0.135,-0.227 -0.264,-0.458 -0.384,-0.693 -0.305,-0.161 -0.593,-0.351 -0.87,-0.555 0.071,0.161 0.151,0.314 0.206,0.493 0.08,0.259 -0.039,0.486 -0.226,0.641 m 2.505,-0.639 c 0.743,1.243 1.505,2.463 2.161,3.745 0.207,-0.323 0.428,-0.659 0.665,-0.99 -0.989,-0.826 -1.851,-1.991 -2.831,-2.864 0.007,0.038 0.008,0.074 0.005,0.109 m 3.983,8.387 c -0.087,-0.107 -1.837,-1.266 -1.925,-1.373 -0.074,0.38 -0.223,0.734 -0.382,1.084 0.32,-0.113 2.244,0.75 2.307,0.289 M -95.68,16.883 c 0.05,0.057 0.095,0.117 0.145,0.175 0.132,-0.126 0.312,-0.187 0.513,-0.1 0.609,0.267 1.125,0.668 1.597,1.13 -0.302,-0.417 -0.569,-0.859 -0.81,-1.315 -0.465,0.127 -0.946,0.174 -1.445,0.11 m 2.798,-6.725 c -0.357,-0.423 -0.71,-0.847 -1.052,-1.281 -0.027,0.055 -0.054,0.115 -0.082,0.168 -0.021,0.04 -0.055,0.065 -0.086,0.096 0.45,0.457 0.872,0.825 1.22,1.017 m -2.502,0.889 c 0.59,0.687 1.178,1.372 1.764,2.059 0.446,0.525 -0.194,1.374 -0.795,0.952 -0.053,-0.037 -0.099,-0.078 -0.149,-0.115 0.138,0.344 0.258,0.689 0.329,1.033 0.006,0.03 0.002,0.056 0.005,0.085 0.081,-0.015 0.166,-0.02 0.246,0 0.015,0.004 0.03,0.011 0.046,0.015 0.476,-0.277 0.919,-0.664 1.308,-1.062 -0.892,-1.013 -1.812,-1.999 -2.754,-2.967 m 2.524,5.949 c 0.669,1.095 1.53,2.075 2.289,3.121 -0.009,-0.189 -0.021,-0.377 -0.037,-0.567 -0.7,-0.888 -1.447,-1.864 -2.252,-2.554 m 1.714,-4.801 c -0.252,-0.292 -0.497,-0.591 -0.75,-0.881 -0.078,0.054 -0.171,0.08 -0.265,0.04 -0.125,-0.052 -0.228,-0.125 -0.347,-0.183 0.287,0.344 0.578,0.685 0.864,1.03 0.123,0.146 0.165,0.3 0.159,0.446 0.115,-0.148 0.229,-0.298 0.339,-0.452 m -0.222,2.675 c -0.085,0.088 -0.169,0.18 -0.256,0.264 0.015,-0.001 0.026,-0.008 0.042,-0.009 0.186,-0.007 0.368,0.023 0.548,0.074 0.019,-0.209 0.174,-0.377 0.361,-0.46 -0.084,-0.114 -0.18,-0.221 -0.26,-0.338 -0.009,0.013 -0.019,0.023 -0.03,0.033 -0.064,0.198 -0.215,0.362 -0.405,0.436 m 2.501,0.788 c -0.309,-0.729 -0.604,-1.348 -0.794,-1.719 -0.152,-0.188 -0.316,-0.365 -0.471,-0.551 -0.077,0.105 -0.145,0.213 -0.226,0.317 0.045,0.06 0.067,0.131 0.067,0.21 0.419,0.623 0.911,1.193 1.424,1.743 m -2.434,11.167 c 0.019,0.054 0.038,0.117 0.057,0.179 0.471,-0.877 0.937,-1.753 1.399,-2.641 -0.098,-0.099 -0.195,-0.199 -0.292,-0.299 -0.335,0.682 -0.822,1.293 -1.535,1.796 0.133,0.317 0.259,0.637 0.371,0.965 m 2.666,-5.36 c 0.085,0.002 0.161,-0.006 0.235,-0.017 -0.053,-0.055 -0.102,-0.115 -0.154,-0.172 -0.207,0.071 -0.452,0.053 -0.633,-0.108 -0.102,-0.09 -0.205,-0.191 -0.307,-0.298 -0.002,0.254 -0.012,0.507 -0.029,0.756 0.279,-0.106 0.574,-0.169 0.888,-0.161 m 2.394,6.092 c -0.402,-0.406 -0.798,-0.818 -1.187,-1.241 -0.098,0.181 -0.194,0.364 -0.292,0.543 0.502,0.217 0.993,0.452 1.479,0.698 m 3.13,1.241 c 0.056,-0.063 0.139,-0.105 0.227,-0.116 -0.949,-0.875 -1.913,-1.769 -2.956,-2.533 0.861,0.913 1.879,1.727 2.729,2.649 m 1.215,1.276 c 0.399,0.242 0.853,0.49 1.314,0.659 -0.102,-0.164 -0.143,-0.362 -0.077,-0.549 0.103,-0.295 0.215,-0.581 0.328,-0.862 -0.202,0.093 -0.441,0.088 -0.648,-0.061 -0.152,0.353 -0.688,0.52 -1.04,0.207 -0.101,-0.09 -0.202,-0.182 -0.302,-0.273 0.13,0.206 0.261,0.414 0.392,0.62 0.056,0.091 0.059,0.18 0.033,0.259 m -1.631,-10.347 c -0.116,0.12 -0.226,0.243 -0.333,0.371 1.001,2.9 2.37,5.669 3.832,8.365 0.012,0.022 0.012,0.043 0.021,0.066 0.15,-0.36 0.292,-0.718 0.426,-1.082 -0.744,-1.119 -1.274,-2.4 -1.731,-3.69 -0.114,-0.227 -0.219,-0.458 -0.336,-0.684 -0.412,-0.795 -1.06,-2.257 -1.879,-3.346 m -1.579,-5.229 c 0.477,0.517 0.965,1.026 1.462,1.526 0.112,-0.061 0.23,-0.11 0.344,-0.167 -0.127,-0.174 -0.247,-0.335 -0.38,-0.515 -0.237,-0.313 -0.474,-0.629 -0.714,-0.95 -0.607,-0.791 -1.258,-1.558 -1.947,-2.218 -0.063,0.038 -0.13,0.064 -0.2,0.08 0.4,0.763 0.917,1.518 1.435,2.244 m -0.591,2.721 c 0.119,-0.112 0.266,-0.189 0.437,-0.162 0.04,0.005 0.075,0.022 0.114,0.03 0.07,-0.063 0.14,-0.127 0.212,-0.188 -0.589,-0.78 -1.266,-1.468 -1.944,-2.179 -0.273,-0.288 -0.509,-0.599 -0.74,-0.91 0.534,1.185 1.217,2.303 1.921,3.409 m 1.932,6.672 c -0.368,-0.818 -0.708,-1.647 -1.024,-2.485 -0.168,0.274 -0.328,0.552 -0.481,0.832 0.538,0.52 1.034,1.075 1.505,1.653 m -2.284,-0.164 c -0.078,0.148 -0.153,0.299 -0.228,0.441 -0.039,0.077 -0.08,0.15 -0.121,0.227 0.627,0.368 1.225,0.784 1.804,1.234 -0.469,-0.644 -0.968,-1.27 -1.455,-1.902 m 11.062,3.001 c 0.044,0.047 0.081,0.101 0.124,0.148 0.164,0.167 0.328,0.333 0.491,0.501 0.27,0.376 0.588,0.626 0.949,0.762 -0.042,-0.174 -0.06,-0.352 -0.047,-0.53 -0.033,-0.046 -0.063,-0.094 -0.095,-0.141 -0.215,-0.015 -0.419,-0.114 -0.528,-0.34 -0.04,-0.084 -0.083,-0.169 -0.123,-0.252 -0.26,-0.036 -0.516,-0.084 -0.771,-0.148 m -2.846,2.649 c 0.301,-0.699 0.52,-1.432 0.977,-2.071 0.079,-0.111 0.181,-0.181 0.29,-0.228 -0.415,-0.551 -0.797,-1.13 -1.134,-1.695 -0.084,0.576 -0.154,1.161 -0.262,1.744 -0.002,0.008 -0.004,0.016 -0.005,0.023 0.076,0.509 0.135,1.021 0.154,1.542 0.007,0.23 0,0.46 -0.02,0.685 m 0.9,-26.78 c -1.072,-1.313 -2.127,-2.636 -3.103,-4.005 0.132,0.315 0.276,0.626 0.465,0.924 0.592,0.937 1.287,1.826 2.02,2.686 0.202,0.131 0.41,0.264 0.618,0.395 m -1.262,16.962 c 0.263,0.666 0.566,1.313 0.888,1.952 0.407,0.079 0.583,0.523 0.464,0.897 0.489,0.918 0.989,1.831 1.453,2.759 0.145,0.086 0.289,0.163 0.437,0.222 -0.354,-0.738 -0.661,-1.49 -0.836,-2.285 -0.668,-1.299 -1.468,-2.555 -2.406,-3.545 m -4.947,11.825 c 2.202,2.259 4.22,4.699 6.84,6.501 2.868,1.972 4.179,-1.751 5.09,-3.895 0.551,-1.298 1.254,-2.533 1.838,-3.81 -0.799,0.733 -1.742,1.305 -2.59,1.325 -1.908,0.044 -2.792,-1.859 -4.144,-2.937 -0.833,1.608 -1.382,4.102 -3.654,3.653 -1.478,-0.293 -2.752,-1.085 -4.004,-1.893 -0.528,-0.341 -1.069,-0.661 -1.605,-0.989 0.769,0.66 1.53,1.326 2.229,2.045 m 13.84,-2.783 c 0.213,-0.142 0.418,-0.279 0.609,-0.405 -0.121,-0.115 -0.241,-0.234 -0.361,-0.35 -0.087,0.062 -0.171,0.112 -0.287,0.165 0.039,0.198 0.049,0.396 0.039,0.59 m 1.675,-12.28 c -0.154,-0.302 -0.31,-0.601 -0.464,-0.902 -0.887,-1.056 -1.784,-2.102 -2.687,-3.143 -0.115,0.01 -0.229,0.018 -0.347,0.039 0.793,0.965 1.599,1.919 2.432,2.853 0.343,0.385 0.7,0.769 1.066,1.153 m 2.316,7.641 c 0.644,0.676 1.401,1.616 2.22,2.392 -0.705,-1.005 -1.674,-1.896 -2.436,-2.747 -1.092,-1.214 -2.104,-2.495 -3.14,-3.756 -0.635,-0.625 -1.228,-1.293 -1.74,-2.043 l -0.005,-0.006 c -0.031,-0.048 -0.069,-0.092 -0.101,-0.139 -0.252,-0.385 0,-0.773 0.35,-0.918 -0.39,-0.545 -0.777,-1.09 -1.169,-1.632 -0.125,-0.147 -0.248,-0.295 -0.373,-0.442 0.266,0.397 0.533,0.792 0.789,1.197 0.289,0.453 -0.139,0.904 -0.576,0.907 1.372,1.622 2.717,3.269 4.055,4.922 0.704,0.761 1.413,1.515 2.126,2.265 m 3.29,-2.134 c 0.465,0.574 0.928,1.153 1.391,1.733 -0.323,-0.553 -0.64,-1.109 -0.979,-1.649 -0.101,-0.025 -0.202,-0.062 -0.287,-0.136 -0.117,-0.102 -0.226,-0.212 -0.338,-0.318 0.067,0.125 0.143,0.245 0.213,0.37 m 2.87,1.718 c 0.094,0.086 0.182,0.178 0.276,0.265 -0.968,-1.544 -2.013,-3.042 -3.094,-4.496 -0.017,0.013 -0.036,0.021 -0.056,0.03 0.386,0.565 0.777,1.126 1.141,1.71 0.109,0.172 0.118,0.331 0.073,0.468 0.373,0.61 0.733,1.227 1.082,1.85 0.185,-0.036 0.392,0.005 0.578,0.173 m 3.23,-9.783 c 0.103,-0.032 0.211,-0.047 0.325,-0.025 -0.728,-0.769 -1.382,-1.582 -1.989,-2.404 -0.417,-0.424 -0.842,-0.846 -1.257,-1.274 0.227,0.29 0.453,0.582 0.681,0.869 0.746,0.943 1.493,1.889 2.24,2.834 m -3.231,0.083 c 0.173,0.288 0.34,0.578 0.519,0.863 0.286,0.333 0.561,0.675 0.862,0.995 0.468,0.437 0.934,0.874 1.405,1.31 0.032,-0.023 0.069,-0.036 0.102,-0.054 -0.965,-1.033 -1.937,-2.065 -2.888,-3.114 m 19.5,11.11 c -0.139,-0.081 -0.244,-0.146 -0.336,-0.205 0.385,0.388 0.135,0.876 -0.256,1.034 -0.014,0.075 -0.027,0.153 -0.042,0.229 0.645,-0.491 1.302,-0.928 1.992,-1.331 -0.171,-0.187 -0.343,-0.371 -0.515,-0.558 0.006,0.012 0.012,0.022 0.017,0.034 0.229,0.547 -0.31,1.126 -0.86,0.797 m 1.49,-2.889 c -0.086,-0.009 -0.173,-0.036 -0.256,-0.103 -0.039,-0.032 -0.077,-0.068 -0.117,-0.1 l -0.001,10e-4 c -0.666,-0.561 -1.339,-1.115 -2.012,-1.669 -0.241,-0.126 -0.483,-0.238 -0.726,-0.329 0.018,0.118 0.049,0.237 0.087,0.358 1.447,0.689 2.75,2.201 4.111,3.222 -0.322,-0.487 -0.688,-0.951 -1.086,-1.38 m 1.742,-3.946 c -0.474,-0.545 -0.935,-1.1 -1.388,-1.664 -0.352,-0.374 -0.706,-0.744 -1.053,-1.129 -0.069,-0.076 -0.132,-0.155 -0.199,-0.232 0.819,1.095 1.674,2.165 2.541,3.226 0.023,-0.073 0.055,-0.141 0.099,-0.201 m 2.301,9.355 c 0.206,-0.479 0.42,-0.952 0.633,-1.423 -0.123,-0.053 -0.248,-0.114 -0.369,-0.188 0.039,0.409 -0.003,0.811 -0.168,1.19 -0.041,0.094 -0.095,0.17 -0.155,0.233 0.021,0.063 0.039,0.125 0.059,0.188 m 3.861,-8.994 c -0.454,-1.247 -1.591,-2.319 -2.31,-3.344 -0.274,-0.388 -0.547,-0.772 -0.821,-1.157 -0.333,-0.309 -0.661,-0.615 -0.981,-0.904 -0.479,-0.431 -0.949,-0.872 -1.424,-1.311 -0.072,-0.055 -0.146,-0.108 -0.219,-0.162 -0.021,0.072 -0.049,0.14 -0.096,0.199 -0.002,0.006 -0.004,0.011 -0.007,0.017 1.333,1.222 2.315,2.744 3.502,4.102 0.753,0.862 1.391,1.946 2.356,2.56 m 1.429,0.183 c 0.053,-0.056 0.101,-0.116 0.156,-0.17 0.187,-0.185 0.377,-0.348 0.573,-0.491 -0.495,-0.267 -0.961,-0.564 -1.381,-0.915 0.294,0.495 0.522,1.018 0.652,1.576 m 1.193,-4.134 c 0.157,0.217 0.319,0.445 0.471,0.683 0.177,0.209 0.361,0.407 0.561,0.572 -0.14,-0.405 -0.35,-0.812 -0.597,-1.209 -0.69,-0.657 -1.307,-1.458 -1.882,-2.299 0.132,0.186 0.259,0.372 0.378,0.565 0.201,0.331 0.425,0.726 0.669,1.129 0.135,0.187 0.263,0.373 0.4,0.559 m -101.35,-1.965 c -0.655,-1.104 -1.204,-2.262 -1.763,-3.414 -0.214,0.231 -0.574,0.312 -0.853,0 -0.448,-0.504 -0.886,-1.017 -1.321,-1.532 1.514,2.124 2.976,4.283 4.41,6.441 0.058,-0.137 0.125,-0.27 0.21,-0.397 -0.226,-0.367 -0.463,-0.726 -0.683,-1.098 M 3.755,-3.876 c 0.81,0.31 1.891,0.618 2.746,0.896 -3.039,3.129 -6.218,6.489 -8.135,9.99 0,0.647 -0.648,1.009 -1.173,1.221 -0.816,1.101 -1.749,2.207 -2.559,3.325 -3.357,4.615 -5.745,9.919 -9.108,14.473 -0.304,0.413 -0.85,0.801 -1.403,0.719 -2.78,-0.407 -4.117,-2.729 -6.056,-4.532 -5.353,-4.979 -7.86,3.472 -9.488,7.381 -2.308,5.544 -6.475,14.841 -12.938,16.315 -3.669,0.836 -7.161,-2.355 -9.657,-4.587 -3.208,-2.868 -6.518,-5.616 -9.714,-8.497 -1.225,-1.104 -2.416,-2.242 -3.614,-3.371 -0.605,1.888 -1.795,3.668 -2.554,5.462 -0.862,2.032 -1.929,4.567 -4.253,5.205 -2.694,0.737 -6.021,-3.399 -7.562,-5.037 -2.18,-2.316 -4.676,-4.525 -6.665,-7.044 -0.876,1.573 -1.627,3.355 -2.526,4.858 -0.263,0.441 -0.685,0.706 -1.034,1.16 -3.241,4.208 -5.925,8.692 -9.5,12.676 -6.146,6.847 -11.598,-0.259 -15.445,-5.712 -8.845,-12.54 -17.727,-25.06 -26.625,-37.569 5.054,2.598 10.257,4.33 15.265,4.18 2.305,3.011 4.426,6.177 6.807,9.115 0.07,-0.064 0.102,-0.175 0.072,-0.356 -0.008,-0.045 -0.023,-0.093 -0.033,-0.139 -0.83,-1.073 -1.651,-2.151 -2.429,-3.262 -1.203,-1.72 -2.681,-3.495 -3.942,-5.366 1.285,-0.069 2.553,-0.279 3.805,-0.621 0.887,1.227 1.784,2.447 2.704,3.641 1.271,1.648 2.653,3.211 3.955,4.835 0.125,0.104 0.25,0.207 0.362,0.321 -0.448,-0.835 -0.924,-1.653 -1.426,-2.456 -0.976,-1.081 -1.896,-2.185 -2.77,-3.165 -0.937,-1.048 -1.844,-2.12 -2.741,-3.201 1.428,-0.397 2.83,-0.973 4.197,-1.775 0.41,0.48 0.828,0.951 1.224,1.444 0.031,0.037 0.062,0.076 0.094,0.113 0.01,0.01 0.019,0.017 0.031,0.025 -0.36,-0.576 -0.844,-1.119 -1.285,-1.622 0.919,-0.544 1.824,-1.174 2.708,-1.92 0.532,-0.449 1.08,-0.931 1.643,-1.407 0.064,0.131 0.126,0.263 0.177,0.397 1.256,1.868 2.528,3.723 3.819,5.568 -0.125,-0.187 -0.254,-0.368 -0.378,-0.554 -1.113,-1.672 -2.109,-3.431 -3.086,-5.184 -0.084,-0.15 -0.176,-0.299 -0.264,-0.45 1.308,-1.079 2.717,-2.08 4.308,-2.479 0.653,-0.164 1.274,-0.194 1.874,-0.148 0.165,0.258 0.332,0.512 0.493,0.77 0.929,1.307 1.986,2.528 2.72,3.543 0.518,0.717 1.036,1.438 1.555,2.159 -0.497,-0.832 -0.987,-1.667 -1.471,-2.508 -0.939,-1.284 -1.889,-2.546 -2.696,-3.894 1.977,0.315 3.773,1.329 5.871,1.139 2.178,-0.197 3.905,-1.4 5.755,-2.366 0.679,0.882 1.359,1.761 1.975,2.66 0.6,0.879 1.167,1.769 1.732,2.654 0.017,0.016 0.031,0.032 0.047,0.048 -0.013,-0.304 0.018,-0.609 0.075,-0.914 -0.442,-0.613 -0.891,-1.223 -1.362,-1.818 -0.722,-0.913 -1.402,-1.869 -2.09,-2.82 0.398,-0.199 0.802,-0.386 1.22,-0.542 0.246,-0.092 0.498,-0.157 0.746,-0.238 0.949,1.452 2.104,2.804 3.078,4.18 0.206,0.292 0.4,0.589 0.602,0.883 0.517,0.289 0.976,0.667 1.402,1.096 -0.04,-0.259 -0.054,-0.529 -0.031,-0.817 0.001,-0.01 0.008,-0.017 0.008,-0.027 -1.62,-1.818 -3.266,-3.61 -4.98,-5.339 0.5,-0.162 1.003,-0.308 1.512,-0.432 0.46,0.472 0.926,0.943 1.377,1.423 -0.368,-0.493 -0.728,-0.99 -1.081,-1.491 1.513,-0.35 3.054,-0.575 4.608,-0.729 0.244,-0.024 0.491,-0.048 0.739,-0.073 0.429,0.454 0.841,0.924 1.236,1.41 -0.242,-0.478 -0.447,-0.968 -0.609,-1.471 0.874,-0.085 1.764,-0.167 2.662,-0.23 0.207,0.184 0.419,0.362 0.618,0.556 0.051,-0.077 0.096,-0.158 0.149,-0.234 0.163,-0.235 0.479,-0.395 0.773,-0.367 -0.007,-0.013 -0.012,-0.027 -0.02,-0.041 1.125,-0.047 2.257,-0.051 3.376,0.028 0.982,1.116 1.827,2.381 2.659,3.577 0.442,0.637 0.908,1.251 1.368,1.869 0.033,0.041 0.071,0.083 0.104,0.125 0.279,0.346 0.54,0.703 0.803,1.058 0.293,-0.344 0.637,-0.635 1.026,-0.849 -0.441,-0.511 -0.868,-1.03 -1.324,-1.53 -1.243,-1.358 -2.34,-2.991 -3.757,-4.192 1.258,0.119 2.496,0.338 3.686,0.707 0.817,1.212 1.705,2.377 2.511,3.631 0.34,0.528 0.668,1.055 0.999,1.583 1.193,0.818 2.26,2.541 2.855,3.491 0.231,-0.421 0.457,-0.831 0.682,-1.241 -1.083,-1.143 -2.151,-2.298 -3.155,-3.514 -0.892,-1.078 -1.758,-2.394 -2.758,-3.543 0.56,0.224 1.108,0.479 1.639,0.783 1.22,0.697 2.37,1.502 3.491,2.345 0.571,0.746 1.156,1.482 1.756,2.207 0.112,-0.192 0.227,-0.385 0.342,-0.576 2.169,1.729 4.315,3.485 6.742,4.823 4.284,2.365 8.256,3.387 12.909,1.426 0.075,-0.032 0.153,-0.07 0.229,-0.104 0.035,0.032 0.07,0.063 0.104,0.097 -0.02,-0.04 -0.035,-0.081 -0.055,-0.12 1.431,-0.65 2.909,-1.677 4.155,-2.925 0.378,0.524 0.764,1.035 1.132,1.502 0.584,0.528 1.163,1.062 1.737,1.602 -0.957,-1.036 -1.885,-2.099 -2.79,-3.18 1.377,-1.401 2.456,-3.064 2.839,-4.77 0.21,-0.931 0.658,-1.534 1.266,-1.901 0.565,0.743 1.123,1.486 1.698,2.223 0.649,0.828 1.361,1.602 2.087,2.365 0.112,-0.028 0.225,-0.027 0.336,0.002 -0.84,-0.947 -1.68,-1.895 -2.54,-2.834 -0.528,-0.578 -1.037,-1.176 -1.538,-1.78 1.191,-0.686 2.982,-0.481 4.845,-0.012 0.425,0.549 0.863,1.09 1.306,1.624 0.099,0.032 0.195,0.086 0.27,0.186 0.229,0.307 0.443,0.623 0.662,0.937 0.227,0.275 0.449,0.547 0.664,0.82 1.474,1.861 2.966,3.707 4.465,5.547 0.519,0.637 1.089,1.26 1.651,1.894 0.157,-0.211 0.46,-0.317 0.706,-0.232 0.375,0.129 0.718,0.299 1.04,0.497 -0.425,-0.603 -0.849,-1.238 -1.234,-1.889 -0.034,0.018 -0.066,0.036 -0.102,0.045 -0.111,0.405 -0.552,0.711 -0.971,0.405 -2.065,-1.507 -3.416,-4.15 -4.787,-6.255 -0.66,-1.013 -1.311,-2.047 -1.949,-3.09 1.766,0.547 3.453,1.161 4.601,1.311 0.653,0.085 1.327,0.084 2.009,0.023 0.802,1.243 1.629,2.469 2.477,3.683 0.786,1.124 1.583,2.237 2.394,3.338 0.397,-0.066 0.831,0.015 1.284,0.201 -0.785,-0.85 -1.546,-1.726 -2.312,-2.593 -1.226,-1.384 -2.468,-2.723 -3.044,-4.513 -0.025,-0.075 -0.031,-0.145 -0.029,-0.209 1.122,-0.172 2.261,-0.492 3.384,-0.877 1.151,1.381 2.387,2.657 3.845,3.64 -0.117,-0.247 -0.234,-0.494 -0.364,-0.736 -0.997,-0.985 -1.873,-2.064 -2.743,-3.166 1.645,-0.606 3.235,-1.314 4.654,-1.859 0.107,-0.04 0.21,-0.076 0.316,-0.116 0.135,0.394 0.161,0.839 0.061,1.213 0.396,0.64 0.806,1.268 1.245,1.883 0.558,0.613 1.091,1.25 1.576,1.932 0.023,0.025 0.042,0.05 0.059,0.078 0.031,0.044 0.068,0.081 0.097,0.125 0.385,0.564 -0.426,1.124 -0.914,0.771 0.66,0.745 1.338,1.487 2.007,2.239 0.206,-0.121 0.466,-0.145 0.662,0.01 0.107,0.083 0.197,0.185 0.299,0.275 -1.078,-2.44 -2.343,-4.849 -3.71,-7.196 -0.403,-0.46 -0.799,-0.928 -1.189,-1.401 0.859,-0.319 1.694,-0.596 2.508,-0.832 0.153,0.176 0.304,0.357 0.456,0.533 0.184,-0.012 0.371,0.039 0.503,0.193 0.557,0.649 1.049,1.345 1.522,2.055 0.443,0.471 0.893,0.938 1.344,1.405 -0.448,-0.738 -0.904,-1.468 -1.392,-2.169 -0.486,-0.699 -1.027,-1.436 -1.238,-2.236 -0.204,0.235 -0.58,0.328 -0.858,0.12 3.841,-1.068 7.308,-1.213 11.134,-0.321 0.8,1.009 1.601,2.018 2.453,2.985 0.125,-0.134 0.243,-0.274 0.37,-0.406 -0.667,-0.851 -1.412,-1.646 -2.182,-2.421 1.063,0.277 2.153,0.626 3.293,1.063 0.047,0.017 0.095,0.036 0.143,0.054 -0.203,0.226 -0.551,0.334 -0.842,0.149 -0.261,-0.167 -0.509,-0.357 -0.753,-0.556 0.322,0.372 0.63,0.755 0.888,1.163 0.248,-0.25 0.508,-0.491 0.765,-0.733" /></g><g
           transform="translate(184.4229,84.3171)"
           id="g24"><path
             id="path26"
             style="fill:#89615b;fill-opacity:1;fill-rule:nonzero;stroke:none"
             d="M 0,0 C -10.364,-0.283 -20.73,-0.595 -31.095,-0.864 -41.914,-1.146 -52.755,-0.976 -63.577,-0.988 -74.781,-1 -86.35,-0.273 -97.529,-1.303 c 4.073,6.32 13.268,8.647 16.604,15.675 1.133,2.39 -1.009,4.454 -2.432,6.078 -1.728,1.976 -3.567,3.793 -5.226,5.837 -1.783,2.196 -4.651,4.253 -6.308,6.618 8.568,-0.272 17.17,0.627 25.748,0.581 9.639,-0.048 19.27,-0.485 28.913,-0.45 9.232,0.031 18.456,0.635 27.686,0.772 10.43,0.154 20.948,-0.47 31.347,0.492 C 13.962,30.028 2.965,24.553 6.864,17.059 8.835,13.274 11.832,10.233 13.81,6.44 14.666,4.798 15.714,2.313 17.164,0.479 11.383,0.112 5.487,0.149 0,0 m 15.245,8.739 c -1.402,2.536 -3.34,4.605 -5.1,6.901 -6.353,8.281 7.077,12.499 10.455,18.629 0.297,0.54 -0.275,1.109 -0.771,0.925 -0.069,0.248 -0.272,0.462 -0.622,0.496 -18.885,1.821 -38.191,0.141 -57.112,-0.324 -19.39,-0.475 -38.634,0.389 -58.027,-0.799 -0.762,-0.046 -0.967,-0.857 -0.623,-1.318 0.003,-0.029 -0.002,-0.058 0.006,-0.089 1.595,-6.104 17.359,-14.938 10.704,-21.702 -4.384,-4.456 -12.855,-7.013 -14.326,-13.335 -0.804,-3.453 25.152,-1.059 36.594,-1.071 11.628,-0.012 23.264,-0.167 34.889,0.109 11.066,0.265 22.155,0.366 33.214,0.743 4.633,0.159 16.495,0.345 16.729,0.62 3.011,0.385 -4.575,7.621 -6.01,10.215" /></g><g
           transform="translate(91.7368,101.1101)"
           id="g28"><path
             id="path30"
             style="fill:#89615b;fill-opacity:1;fill-rule:nonzero;stroke:none"
             d="m 0,0 c -0.028,0.032 -0.058,0.058 -0.087,0.09 0.057,3.279 -5.555,2.68 -7.601,2.463 -2.615,-0.278 -5.167,-0.574 -7.812,-0.494 -2.253,0.066 -4.426,0.625 -6.47,1.549 -2.183,0.99 -2.376,2.522 -2.467,4.386 0.373,0.955 1.007,1.815 1.891,2.446 0.967,0.693 2.17,0.977 3.337,1.046 2.143,-0.549 2.737,-1.864 1.787,-3.945 -0.654,-0.587 -1.185,-0.457 -1.595,0.388 0.057,0.247 -0.217,0.509 -0.453,0.348 -1.173,-0.798 -1.047,-2.093 0.283,-2.604 1.753,-0.675 3.663,1.233 3.887,2.75 0.33,2.237 -1.599,4.368 -3.691,4.674 -2.717,0.4 -5.484,-1.392 -6.921,-3.549 -3.421,-5.136 1.645,-11.298 6.911,-11.71 2.997,-0.235 5.953,0.356 8.884,0.914 2.369,0.451 7.312,2.169 9.324,0.455 C -0.244,-1.261 0.481,-0.547 0,0" /></g><g
           transform="translate(89.5483,97.8249)"
           id="g32"><path
             id="path34"
             style="fill:#89615b;fill-opacity:1;fill-rule:nonzero;stroke:none"
             d="m 0,0 c -0.036,0.148 -0.153,0.284 -0.311,0.273 -0.237,-0.018 -0.468,-0.051 -0.7,-0.087 -3.904,0.088 -7.757,-1.368 -11.022,-3.452 -1.851,-1.18 -4.779,-3.927 -3.753,-6.454 1.073,-2.643 4.535,-0.049 5.647,1.032 1.525,1.479 2.805,3.181 4.36,4.636 1.494,1.399 3.35,2.156 5.006,3.267 0.192,0.033 0.387,0.071 0.579,0.099 C 0.176,-0.63 0.188,-0.233 0,0" /></g><g
           transform="translate(89.3833,106.2761)"
           id="g36"><path
             id="path38"
             style="fill:#89615b;fill-opacity:1;fill-rule:nonzero;stroke:none"
             d="m 0,0 c -0.457,1.158 -1.518,1.252 -2.37,2.059 -0.972,0.92 -1.376,2.967 -1.974,4.177 -0.878,1.776 -4.102,2.736 -4.881,0.31 -1.578,-4.924 4.472,-7.77 8.45,-7.358 0.25,0.024 0.402,0.184 0.46,0.368 C -0.107,-0.409 0.093,-0.233 0,0" /></g><g
           transform="translate(202.7725,100.3171)"
           id="g40"><path
             id="path42"
             style="fill:#89615b;fill-opacity:1;fill-rule:nonzero;stroke:none"
             d="m 0,0 c 2.013,1.714 6.956,-0.004 9.324,-0.455 2.931,-0.558 5.887,-1.149 8.885,-0.914 5.265,0.412 10.331,6.574 6.911,11.71 -1.437,2.157 -4.204,3.949 -6.922,3.549 -2.092,-0.306 -4.02,-2.437 -3.691,-4.674 0.225,-1.517 2.135,-3.425 3.887,-2.75 1.331,0.511 1.456,1.806 0.283,2.604 -0.236,0.161 -0.51,-0.101 -0.452,-0.348 -0.41,-0.845 -0.942,-0.975 -1.596,-0.388 -0.949,2.081 -0.355,3.395 1.787,3.945 1.167,-0.069 2.37,-0.353 3.338,-1.046 0.884,-0.631 1.517,-1.491 1.891,-2.446 C 23.554,6.923 23.36,5.391 21.177,4.401 19.133,3.477 16.961,2.918 14.708,2.852 12.063,2.772 9.51,3.068 6.896,3.346 4.849,3.563 -0.762,4.162 -0.706,0.883 -0.734,0.851 -0.765,0.825 -0.793,0.793 -1.274,0.246 -0.549,-0.468 0,0" /></g><g
           transform="translate(204.3623,97.1394)"
           id="g44"><path
             id="path46"
             style="fill:#89615b;fill-opacity:1;fill-rule:nonzero;stroke:none"
             d="m 0,0 c 0.191,-0.028 0.387,-0.066 0.58,-0.1 1.654,-1.111 3.512,-1.868 5.006,-3.266 1.554,-1.455 2.834,-3.157 4.358,-4.637 1.113,-1.08 4.576,-3.675 5.649,-1.031 1.025,2.526 -1.904,5.273 -3.753,6.454 C 8.573,-0.496 4.722,0.96 0.817,0.871 0.586,0.907 0.354,0.94 0.116,0.959 -0.041,0.97 -0.158,0.834 -0.193,0.686 -0.383,0.452 -0.369,0.056 0,0" /></g><g
           transform="translate(204.6494,105.8318)"
           id="g48"><path
             id="path50"
             style="fill:#89615b;fill-opacity:1;fill-rule:nonzero;stroke:none"
             d="M 0,0 C 0.057,-0.184 0.21,-0.344 0.46,-0.368 4.437,-0.779 10.487,2.066 8.908,6.99 8.13,9.416 4.905,8.456 4.028,6.681 3.431,5.471 3.026,3.423 2.055,2.503 1.201,1.696 0.142,1.603 -0.315,0.444 -0.408,0.211 -0.209,0.035 0,0" /></g><g
           transform="translate(117.0967,91.9294)"
           id="g52"><path
             id="path54"
             style="fill:#89615b;fill-opacity:1;fill-rule:nonzero;stroke:none"
             d="m 0,0 h -2.153 c -0.527,0 -0.79,-0.264 -0.79,-0.792 0,-0.528 0.263,-0.792 0.79,-0.792 H 0 c 0.515,0 0.775,0.27 0.775,0.81 C 0.775,-0.258 0.515,0 0,0" /></g><g
           transform="translate(177.8643,91.9294)"
           id="g56"><path
             id="path58"
             style="fill:#89615b;fill-opacity:1;fill-rule:nonzero;stroke:none"
             d="m 0,0 h -2.152 c -0.526,0 -0.788,-0.264 -0.788,-0.792 0,-0.528 0.262,-0.792 0.788,-0.792 H 0 c 0.518,0 0.775,0.27 0.775,0.81 C 0.775,-0.258 0.518,0 0,0" /></g></g></g><text
       id="text62"
       style="font-variant:normal;font-weight:800;font-stretch:normal;font-size:10.99996853px;font-family:'Roboto Slab ExtraBold';-inkscape-font-specification:RobotoSlab-ExtraBold;writing-mode:lr-tb;fill:#95a692;fill-opacity:1;fill-rule:nonzero;stroke:none"
       transform="matrix(0.99788466,0.06500928,0.06500928,-0.99788466,104.908,98.3404)"><tspan
         id="tspan60"
         y="0"
         x="0 9.9439716 15.146956 24.837929 30.040915 39.995888 48.729862 52.733849 62.424824 67.627808 76.086784">HIKING KICK</tspan></text>
<text
       id="text66"
       style="font-variant:normal;font-weight:normal;font-stretch:normal;font-size:12px;font-family:Handlee;-inkscape-font-specification:Handlee-Regular;writing-mode:lr-tb;fill:#89615b;fill-opacity:1;fill-rule:nonzero;stroke:none"
       transform="matrix(1,0,0,-1,120.8618,87.9551)"><tspan
         id="tspan64"
         y="0"
         x="0 10.932 21.048 32.627998 42.66">GROUP</tspan></text>
<g
       id="g68"><g
         clip-path="url(#clipPath74)"
         id="g70"><g
           transform="translate(90.73,155.3435)"
           id="g76"><path
             id="path78"
             style="fill:#514a5d;fill-opacity:1;fill-rule:nonzero;stroke:none"
             d="M 0,0 5.548,-2.189 C 7.412,-2.882 8.613,-3.577 9.152,-4.274 8.828,-4.925 8.407,-5.277 7.891,-5.333 7.374,-5.389 6.704,-5.263 5.882,-4.958 l -7.799,3.027 c -1.984,0.739 -3.676,1.299 -5.076,1.682 -0.771,-1.255 -1.628,-3.153 -2.574,-5.694 l -0.571,-1.646 c -0.261,-0.703 -0.553,-1.448 -0.874,-2.237 1.04,-0.608 2.456,-1.245 4.247,-1.912 l 4.332,-1.571 c 1.646,-0.612 2.558,-1.048 2.737,-1.307 0.178,-0.259 0.232,-0.487 0.16,-0.68 -0.342,-0.919 -1.687,-0.941 -4.033,-0.068 l -8.144,3.32 c -0.241,-0.572 -0.635,-1.556 -1.181,-2.95 -1.138,-2.909 -2.071,-5.083 -2.798,-6.519 1.512,-0.674 2.607,-1.136 3.285,-1.388 0.677,-0.252 1.384,-0.501 2.118,-0.747 0.735,-0.247 2.116,-0.678 4.146,-1.295 2.029,-0.618 3.533,-1.109 4.514,-1.474 0.979,-0.364 1.626,-0.681 1.939,-0.948 0.314,-0.27 0.385,-0.633 0.214,-1.093 -0.108,-0.29 -0.261,-0.46 -0.459,-0.511 -0.198,-0.05 -0.369,-0.084 -0.512,-0.098 -0.144,-0.016 -0.313,-0.008 -0.508,0.023 -0.195,0.031 -0.363,0.06 -0.505,0.085 -0.143,0.025 -0.331,0.074 -0.565,0.148 -0.235,0.074 -0.421,0.128 -0.558,0.166 -0.137,0.038 -0.315,0.097 -0.533,0.178 l -0.508,0.19 c -4.823,1.547 -7.9,2.568 -9.231,3.063 -3.992,1.486 -5.781,2.785 -5.367,3.899 0.788,2.267 1.562,4.418 2.318,6.451 2.494,6.701 4.788,12.197 6.881,16.487 0.805,0.609 2.451,0.52 4.941,-0.269 C -2.522,0.883 -1.161,0.433 0,0" /></g><g
           transform="translate(102.4185,147.1272)"
           id="g80"><path
             id="path82"
             style="fill:#514a5d;fill-opacity:1;fill-rule:nonzero;stroke:none"
             d="m 0,0 c 0.439,0.594 0.994,0.891 1.666,0.891 0.257,0 0.516,-0.065 0.774,-0.194 0.542,-3.46 1.678,-6.635 3.408,-9.527 1.135,2.118 2.504,5.099 4.105,8.946 0.619,0.336 1.116,0.504 1.49,0.504 0.374,0 0.678,-0.039 0.911,-0.117 -0.517,-1.678 -1.124,-3.24 -1.821,-4.685 -0.697,-1.446 -1.355,-2.776 -1.974,-3.988 -0.62,-1.214 -1.072,-2.105 -1.356,-2.673 0.722,-0.904 1.336,-1.62 1.839,-2.149 0.504,-0.53 1.207,-1.079 2.111,-1.646 1.187,-0.775 2.31,-1.161 3.369,-1.161 0.542,0 0.916,-0.104 1.123,-0.311 -0.284,-0.878 -0.968,-1.316 -2.052,-1.316 -1.808,0 -3.615,0.71 -5.422,2.13 -0.671,0.542 -1.065,0.871 -1.181,0.987 -0.116,0.116 -0.471,0.458 -1.065,1.026 -0.207,-0.309 -0.497,-0.851 -0.871,-1.626 -0.375,-0.774 -0.691,-1.388 -0.949,-1.84 -0.258,-0.452 -0.607,-0.8 -1.045,-1.045 -0.44,-0.246 -0.82,-0.368 -1.143,-0.368 -0.323,0 -0.626,0.038 -0.91,0.117 0.413,0.851 1.026,2.013 1.84,3.485 0.813,1.471 1.361,2.477 1.645,3.02 C 3.201,-9.526 2.175,-7.648 1.414,-5.906 0.652,-4.163 0.181,-2.194 0,0" /></g><g
           transform="translate(129.9331,142.5486)"
           id="g84"><path
             id="path86"
             style="fill:#514a5d;fill-opacity:1;fill-rule:nonzero;stroke:none"
             d="m 0,0 c -2.195,0 -3.654,-1.136 -4.376,-3.407 -0.62,-1.937 -0.93,-4.609 -0.93,-8.016 0,-1.239 0.013,-2.156 0.039,-2.75 2.298,-0.49 3.859,-0.735 4.686,-0.735 1.497,0 2.685,0.599 3.562,1.801 0.878,1.2 1.317,2.665 1.317,4.394 0,2.557 -0.381,4.648 -1.142,6.274 C 2.394,-0.813 1.342,0 0,0 m -5.189,-15.993 c 0.077,-2.091 0.335,-5.047 0.774,-8.868 -0.491,-0.49 -2.014,-0.722 -2.168,-0.697 -0.026,1.007 -0.213,3.291 -0.562,6.854 -0.349,3.563 -0.523,6.293 -0.523,8.19 0,1.898 0.116,3.544 0.349,4.938 0.232,1.394 0.632,2.697 1.2,3.911 1.162,2.504 3.305,3.756 6.429,3.756 1.936,0 3.523,-1.059 4.763,-3.175 1.239,-2.117 1.859,-4.583 1.859,-7.396 0,-2.221 -0.724,-4.169 -2.169,-5.848 -1.446,-1.678 -3.447,-2.517 -6.002,-2.517 -1.575,0 -2.892,0.283 -3.95,0.852" /></g><g
           transform="translate(144.2246,142.904)"
           id="g88"><path
             id="path90"
             style="fill:#514a5d;fill-opacity:1;fill-rule:nonzero;stroke:none"
             d="m 0,0 c 0,2.556 -0.348,4.272 -1.045,5.15 0.335,0.491 0.916,0.736 1.742,0.736 0.156,0 0.323,-0.013 0.504,-0.039 0.645,-0.645 0.968,-2.517 0.968,-5.615 0,-1.678 -0.077,-3.627 -0.232,-5.847 -0.31,-3.872 -0.465,-6.712 -0.465,-8.52 0,-4.879 0.942,-7.318 2.827,-7.318 l 1.432,0.27 c 0.233,0 0.427,-0.103 0.581,-0.309 -0.077,-0.93 -0.832,-1.394 -2.265,-1.394 -1.433,0 -2.536,0.432 -3.311,1.297 -0.774,0.864 -1.258,1.949 -1.452,3.253 -0.193,1.304 -0.291,2.382 -0.291,3.233 0,0.853 0.013,1.788 0.039,2.808 0.026,1.02 0.142,2.484 0.349,4.396 C -0.206,-4.027 0,-1.394 0,0" /></g><g
           transform="translate(156.1572,148.9289)"
           id="g92"><path
             id="path94"
             style="fill:#514a5d;fill-opacity:1;fill-rule:nonzero;stroke:none"
             d="m 0,0 c -0.349,-1.02 -0.607,-2.033 -0.774,-3.04 -0.169,-1.006 -0.252,-1.943 -0.252,-2.807 0,-0.865 0.064,-1.653 0.193,-2.362 0.129,-0.71 0.349,-1.408 0.658,-2.091 0.311,-0.685 0.775,-1.227 1.395,-1.627 0.619,-0.401 1.355,-0.6 2.207,-0.6 1.729,0 3.181,0.709 4.356,2.13 1.175,1.419 1.763,3.137 1.763,5.15 0,2.014 -0.536,3.969 -1.608,5.867 C 6.867,2.518 5.557,3.466 4.008,3.466 3.078,3.466 2.266,3.143 1.568,2.498 0.871,1.853 0.349,1.02 0,0 m -1.704,2.033 c 1.304,2.014 3.194,3.021 5.673,3.021 2.478,0 4.46,-1.007 5.944,-3.021 1.484,-2.013 2.227,-4.305 2.227,-6.873 0,-2.57 -0.813,-4.744 -2.44,-6.526 -1.626,-1.781 -3.692,-2.672 -6.196,-2.672 -2.504,0 -4.324,0.704 -5.46,2.111 -1.136,1.407 -1.704,3.388 -1.704,5.944 0,3.33 0.652,6.003 1.956,8.016" /></g><g
           transform="translate(176.9307,131.8493)"
           id="g96"><path
             id="path98"
             style="fill:#514a5d;fill-opacity:1;fill-rule:nonzero;stroke:none"
             d="m 0,0 0.347,-2.184 c 0.059,-0.564 -0.06,-0.972 -0.358,-1.225 -0.299,-0.252 -0.607,-0.395 -0.928,-0.429 -0.322,-0.033 -0.655,-0.016 -0.998,0.052 -0.879,2.918 -1.7,6.583 -2.462,10.994 -0.763,4.41 -1.202,6.908 -1.315,7.494 0.348,0.399 0.733,0.622 1.157,0.666 0.423,0.045 0.808,0.033 1.152,-0.034 0.18,-0.734 0.431,-2.369 0.75,-4.906 0.318,-2.535 0.551,-4.121 0.695,-4.755 0.132,2.195 0.563,4.278 1.289,6.249 0.402,1.107 0.988,2.018 1.757,2.736 0.768,0.717 1.634,1.126 2.597,1.227 0.963,0.101 1.893,-0.236 2.793,-1.01 C 7.375,14.099 7.861,13.366 7.934,12.672 7.961,12.416 7.828,12.2 7.534,12.027 7.241,11.853 6.908,11.747 6.536,11.708 6.164,11.668 5.86,11.779 5.625,12.04 5.39,12.3 5.216,12.6 5.103,12.939 4.988,13.277 4.788,13.574 4.502,13.83 4.216,14.085 3.854,14.19 3.418,14.144 2.263,14.022 1.383,12.878 0.781,10.712 -0.15,7.474 -0.411,3.902 0,0" /></g><g
           transform="translate(193.0234,135.6052)"
           id="g100"><path
             id="path102"
             style="fill:#514a5d;fill-opacity:1;fill-rule:nonzero;stroke:none"
             d="M 0,0 C 1.182,0.275 2.149,0.898 2.904,1.869 3.659,2.841 4.135,3.786 4.331,4.707 4.527,5.627 4.547,6.427 4.389,7.106 4.23,7.785 3.827,8.32 3.18,8.713 2.531,9.105 1.854,9.22 1.151,9.056 -0.106,8.763 -1.067,7.625 -1.731,5.641 -2.396,3.657 -2.737,1.682 -2.757,-0.284 -1.598,-0.253 -0.679,-0.158 0,0 m -2.576,-1.912 c 0.066,-0.515 0.12,-0.86 0.161,-1.036 0.352,-1.508 1.082,-2.571 2.194,-3.187 1.111,-0.616 2.294,-0.777 3.552,-0.484 1.257,0.293 2.241,0.706 2.951,1.244 0.71,0.536 1.195,1.046 1.452,1.531 0.642,1.342 1.34,2.101 2.094,2.277 0.276,0.064 0.621,0.065 1.033,0.002 0.036,-1.291 -0.651,-2.637 -2.06,-4.039 -1.41,-1.402 -3.36,-2.393 -5.849,-2.972 -1.761,-0.41 -3.406,-0.204 -4.935,0.62 -1.531,0.822 -2.522,2.202 -2.973,4.139 -0.45,1.935 -0.505,3.904 -0.163,5.906 0.343,2.001 1.086,3.817 2.23,5.449 1.144,1.632 2.464,2.622 3.96,2.97 1.495,0.349 2.775,0.322 3.836,-0.08 C 5.968,10.025 6.637,9.233 6.912,8.052 7.422,5.864 6.867,3.832 5.249,1.959 3.632,0.084 1.729,-1.107 -0.458,-1.617 -1.037,-1.752 -1.743,-1.851 -2.576,-1.912" /></g><g
           transform="translate(125.0708,118.0466)"
           id="g104"><path
             id="path106"
             style="fill:#514a5d;fill-opacity:1;fill-rule:nonzero;stroke:none"
             d="m 0,0 -1.678,-0.45 0.565,-7.454 1.904,1.112 -0.3,7.857" /></g></g></g></g></svg>